<svg width="40" height="40" viewBox="0 0 40 40" fill="none" xmlns="http://www.w3.org/2000/svg">
  <path d="M19.5469 39.3594C30.0421 39.3594 38.5469 30.8546 38.5469 20.3594C38.5469 9.86414 30.0421 1.35938 19.5469 1.35938C9.05164 1.35938 0.546875 9.86414 0.546875 20.3594C0.546875 30.8546 9.05164 39.3594 19.5469 39.3594Z" stroke="black" stroke-miterlimit="10"/>
  <path d="M27.3576 17.1748C27.3576 16.4559 27.1764 15.9167 26.9047 15.1978C26.7235 14.6587 26.3612 14.2093 25.9084 13.8499C25.4555 13.4905 25.0932 13.131 24.5497 12.8614C24.0062 12.5918 23.2816 12.4121 22.557 12.4121C21.7418 12.4121 21.4701 12.4121 19.4774 12.4121C17.3941 12.4121 17.213 12.4121 16.3978 12.4121C15.6731 12.4121 15.1297 12.5918 14.4051 12.8614C13.8616 13.0411 13.4087 13.4006 13.0464 13.8499C12.5935 14.2992 12.3218 14.6587 12.0501 15.1978C11.7783 15.737 11.5972 16.4559 11.5972 17.1748C11.5972 17.9835 11.5972 18.2531 11.5972 20.2301C11.5972 22.207 11.5972 22.4766 11.5972 23.2854C11.5972 24.0043 11.7783 24.5434 12.0501 25.2623C12.5029 26.3407 13.3181 27.2393 14.4051 27.5987C14.9485 27.8683 15.6731 28.0481 16.3978 28.0481C17.213 28.0481 17.4847 28.0481 19.4774 28.0481C21.4701 28.0481 21.7418 28.0481 22.557 28.0481C23.2816 28.0481 23.8251 27.8683 24.5497 27.5987C25.6366 27.1494 26.5424 26.3407 26.9047 25.2623C27.1764 24.7232 27.3576 24.0043 27.3576 23.2854C27.3576 22.4766 27.3576 22.207 27.3576 20.2301C27.3576 18.1633 27.3576 17.9835 27.3576 17.1748ZM25.3649 20.2301C25.3649 22.2969 25.3649 22.4766 25.3649 23.2854C25.3649 23.7347 25.1837 24.0941 25.0932 24.5434C24.8214 25.0826 24.3685 25.5319 23.8251 25.8015C23.3722 25.9812 23.0099 26.0711 22.557 26.0711C21.7418 26.0711 21.5606 26.0711 19.4774 26.0711C17.3941 26.0711 17.213 26.0711 16.3978 26.0711C15.9449 26.0711 15.5826 25.8914 15.1297 25.8015C14.5862 25.5319 14.1333 25.0826 13.8616 24.5434C13.6804 24.0941 13.5899 23.7347 13.5899 23.2854C13.5899 22.4766 13.5899 22.2969 13.5899 20.2301C13.5899 18.2531 13.5899 17.9835 13.5899 17.1748C13.5899 16.7255 13.771 16.366 13.8616 15.9167C14.1333 15.3775 14.5862 14.9282 15.1297 14.6587C15.5826 14.4789 15.9449 14.3891 16.3978 14.3891C17.1224 14.3891 17.3941 14.3891 19.4774 14.3891C21.4701 14.3891 21.7418 14.3891 22.557 14.3891C23.0099 14.3891 23.3722 14.5688 23.8251 14.6587C24.3685 14.9282 24.8214 15.3775 25.0932 15.9167C25.2743 16.366 25.3649 16.7255 25.3649 17.1748C25.3649 17.9835 25.3649 18.2531 25.3649 20.2301Z" fill="black"/>
  <path d="M19.5679 16.9053C17.7564 16.9053 16.2166 18.4329 16.2166 20.2302C16.2166 22.0274 17.7564 23.555 19.5679 23.555C21.3794 23.555 22.9193 22.0274 22.9193 20.2302C22.9193 18.4329 21.3794 16.9053 19.5679 16.9053ZM19.5679 21.8477C18.7527 21.8477 17.9375 21.1288 17.9375 20.2302C17.9375 19.3315 18.6621 18.6126 19.5679 18.6126C20.5642 18.6126 21.1983 19.3315 21.1983 20.2302C21.1983 21.0389 20.3831 21.8477 19.5679 21.8477Z" fill="black"/>
  <path d="M23.4629 15.3774C22.9194 15.3774 22.376 15.8268 22.376 16.4558C22.376 16.995 22.8289 17.5341 23.4629 17.5341C24.1875 17.5341 24.5498 17.0848 24.5498 16.4558C24.3687 15.7369 24.0064 15.3774 23.4629 15.3774Z" fill="black"/>
</svg>
