<svg width="40" height="40" viewBox="0 0 40 40" fill="none" xmlns="http://www.w3.org/2000/svg">
  <path d="M20 1.26953C9.50476 1.26953 1 9.77429 1 20.2695C1 30.7648 9.50476 39.2695 20 39.2695C30.4952 39.2695 39 30.6743 39 20.2695C39 9.86477 30.4048 1.26953 20 1.26953Z" stroke="black" stroke-miterlimit="10"/>
  <path d="M26.8144 16.7263C26.8144 16.8161 26.8144 16.9959 26.8144 17.2654C26.8144 21.8484 23.2819 27.1502 16.8509 27.1502C14.7676 27.1502 13.0466 26.5212 11.5068 25.6226C11.7786 25.6226 12.0503 25.6226 12.4126 25.6226C14.043 25.6226 15.5828 25.0834 16.7603 24.0949C15.2205 24.0949 13.9524 23.1065 13.409 21.6687C13.6807 21.6687 13.7713 21.6687 14.043 21.6687C14.4053 21.6687 14.677 21.6687 14.9488 21.5788C13.3184 21.3092 12.1409 19.7816 12.1409 18.1641C12.6843 18.4336 13.1372 18.5235 13.6807 18.5235C12.7749 17.8945 12.1409 16.906 12.1409 15.6479C12.1409 15.0189 12.2315 14.3899 12.6843 13.8507C14.3147 16.0074 17.032 17.3553 19.8399 17.535C19.8399 17.2654 19.8399 16.9959 19.8399 16.8161C19.8399 14.929 21.3797 13.3115 23.3724 13.3115C24.3688 13.3115 25.2745 13.671 25.9086 14.4797C26.6332 14.3899 27.4484 13.9406 28.0824 13.5811C27.8107 14.3 27.3578 15.1088 26.5426 15.4682C27.2672 15.3783 27.9013 15.1986 28.6259 14.929C28.0824 15.5581 27.4484 16.277 26.8144 16.7263Z" fill="black"/>
</svg>
