<svg width="24" height="24" viewBox="0 0 24 24" fill="none" xmlns="http://www.w3.org/2000/svg">
  <path opacity="0.2" d="M12 24C18.6274 24 24 18.6274 24 12C24 5.37258 18.6274 0 12 0C5.37258 0 0 5.37258 0 12C0 18.6274 5.37258 24 12 24Z" fill="white"/>
  <path d="M17.7498 9.95078C17.7498 9.45078 17.6498 9.05078 17.4498 8.55078C17.3498 8.15078 17.0498 7.85078 16.7498 7.55078C16.4498 7.25078 16.1498 7.05078 15.7498 6.85078C15.3498 6.65078 14.8498 6.55078 14.3498 6.55078C13.8498 6.55078 13.6498 6.55078 12.1498 6.55078C10.6498 6.55078 10.5498 6.55078 9.9498 6.55078C9.4498 6.55078 9.0498 6.65078 8.5498 6.85078C8.1498 6.95078 7.8498 7.25078 7.5498 7.55078C7.2498 7.85078 6.9498 8.15078 6.8498 8.55078C6.6498 8.95078 6.5498 9.45078 6.5498 9.95078C6.5498 10.5508 6.5498 10.6508 6.5498 12.1508C6.5498 13.6508 6.5498 13.7508 6.5498 14.3508C6.5498 14.8508 6.6498 15.2508 6.8498 15.7508C7.1498 16.5508 7.7498 17.1508 8.5498 17.4508C8.9498 17.6508 9.4498 17.7508 9.9498 17.7508C10.5498 17.7508 10.7498 17.7508 12.1498 17.7508C13.5498 17.7508 13.7498 17.7508 14.3498 17.7508C14.8498 17.7508 15.2498 17.6508 15.7498 17.4508C16.5498 17.1508 17.1498 16.5508 17.4498 15.7508C17.6498 15.3508 17.7498 14.8508 17.7498 14.3508C17.7498 13.7508 17.7498 13.5508 17.7498 12.1508C17.7498 10.6508 17.7498 10.5508 17.7498 9.95078ZM16.3498 12.1508C16.3498 13.6508 16.3498 13.7508 16.3498 14.3508C16.3498 14.6508 16.2498 14.9508 16.1498 15.2508C15.9498 15.6508 15.6498 15.9508 15.2498 16.1508C14.9498 16.2508 14.6498 16.2508 14.3498 16.2508C13.7498 16.2508 13.6498 16.2508 12.1498 16.2508C10.6498 16.2508 10.5498 16.2508 9.9498 16.2508C9.6498 16.2508 9.3498 16.1508 9.0498 16.0508C8.6498 15.9508 8.3498 15.6508 8.2498 15.2508C8.1498 14.9508 8.0498 14.6508 8.0498 14.3508C8.0498 13.7508 8.0498 13.6508 8.0498 12.1508C8.0498 10.7508 8.0498 10.5508 8.0498 9.95078C8.0498 9.65078 8.1498 9.35078 8.2498 9.05078C8.4498 8.65078 8.7498 8.35078 9.1498 8.15078C9.4498 8.05078 9.7498 7.95078 10.0498 7.95078C10.5498 7.95078 10.7498 7.95078 12.2498 7.95078C13.7498 7.95078 13.8498 7.95078 14.4498 7.95078C14.7498 7.95078 15.0498 8.05078 15.3498 8.15078C15.7498 8.35078 16.0498 8.65078 16.2498 9.05078C16.3498 9.35078 16.4498 9.65078 16.4498 9.95078C16.3498 10.5508 16.3498 10.7508 16.3498 12.1508Z" fill="white"/>
  <path d="M12.1498 9.75073C10.8498 9.75073 9.74982 10.8507 9.74982 12.1507C9.74982 13.4507 10.8498 14.5507 12.1498 14.5507C13.4498 14.5507 14.5498 13.4507 14.5498 12.1507C14.5498 10.8507 13.4498 9.75073 12.1498 9.75073ZM12.1498 13.3507C11.5498 13.3507 10.9498 12.7507 10.9498 12.1507C10.9498 11.5507 11.5498 10.9507 12.1498 10.9507C12.7498 10.9507 13.3498 11.4507 13.3498 12.1507C13.3498 12.7507 12.7498 13.3507 12.1498 13.3507Z" fill="white"/>
  <path d="M14.9498 8.65088C14.5498 8.65088 14.1498 8.95088 14.1498 9.45088C14.1498 9.95088 14.4498 10.2509 14.9498 10.2509C15.3498 10.2509 15.7498 9.95088 15.7498 9.45088C15.6498 8.95088 15.3498 8.65088 14.9498 8.65088Z" fill="white"/>
  <path d="M14.9073 8.65869C14.6028 8.65869 14.3282 8.84215 14.2116 9.12353C14.0951 9.40491 14.1595 9.72879 14.3749 9.94414C14.5902 10.1595 14.9141 10.2239 15.1955 10.1074C15.4769 9.99082 15.6603 9.71625 15.6603 9.41169C15.6598 8.99605 15.323 8.65924 14.9073 8.65869Z" fill="white"/>
</svg>
