<svg width="40" height="40" viewBox="0 0 40 40" fill="none" xmlns="http://www.w3.org/2000/svg">
  <path d="M19.5469 1.17969C9.05164 1.17969 0.546875 9.68445 0.546875 20.1797C0.546875 30.6749 9.05164 39.1797 19.5469 39.1797C29.9516 39.1797 38.5469 30.5844 38.5469 20.1797C38.5469 9.77493 29.9516 1.17969 19.5469 1.17969Z" stroke="black" stroke-miterlimit="10"/>
  <path d="M27.4482 23.915C27.267 24.7238 26.633 25.4427 25.6366 25.5325C23.5533 25.7122 21.5606 25.8021 19.4774 25.8021C17.3941 25.8021 15.4014 25.8021 13.3181 25.5325C12.5029 25.3528 11.7783 24.8136 11.5066 23.915C11.2349 22.6569 11.2349 21.3989 11.2349 20.051C11.2349 18.7929 11.2349 17.445 11.5066 16.1869C11.6877 15.3781 12.3218 14.6593 13.3181 14.5694C15.4014 14.3897 17.3941 14.2998 19.4774 14.2998C21.5606 14.2998 23.5533 14.2998 25.6366 14.5694C26.4518 14.7491 27.1764 15.2883 27.4482 16.1869C27.7199 17.445 27.7199 18.703 27.7199 20.051C27.8105 21.309 27.7199 22.6569 27.4482 23.915Z" fill="black"/>
  <path d="M18.2092 22.1177L22.5569 19.6016L18.2092 17.0854V22.1177Z" fill="#F9F9F9"/>
</svg>
