<svg width="23" height="16" viewBox="0 0 23 16" fill="none" xmlns="http://www.w3.org/2000/svg">
  <path fill-rule="evenodd" clip-rule="evenodd" d="M0.124121 1.34159C0.289616 1.62098 0.594273 1.7879 0.918812 1.77701L21.1408 1.77801C21.6318 1.77801 22.0298 1.37999 22.0298 0.889014C22.0298 0.398033 21.6318 1.37524e-05 21.1408 1.37524e-05H0.918812C0.594273 -0.0108755 0.289616 0.15605 0.124121 0.435434C-0.0413737 0.714819 -0.0413737 1.06221 0.124121 1.34159ZM0.918812 8.88901C0.601203 8.88901 0.30772 8.71957 0.148915 8.44451C-0.00988927 8.16946 -0.00988927 7.83057 0.148915 7.55551C0.30772 7.28046 0.601203 7.11101 0.918812 7.11101H13.8078C14.2988 7.11101 14.6968 7.50903 14.6968 8.00001C14.6968 8.491 14.2988 8.88901 13.8078 8.88901H0.918812ZM0.918812 16C0.427831 16 0.0298119 15.602 0.0298119 15.111C0.0298119 14.62 0.427831 14.222 0.918812 14.222H21.1408C21.6318 14.222 22.0298 14.62 22.0298 15.111C22.0298 15.602 21.6318 16 21.1408 16H0.918812Z" fill="black"/>
</svg>
